<svg width="96" height="66" viewBox="0 0 96 66" fill="none" xmlns="http://www.w3.org/2000/svg"><path d="M25.0555 17.9726C28.6962 18.1349 31.4339 21.2537 31.3916 24.6892C31.4055 28.4644 28.2727 31.4486 24.597 31.3853C20.8435 31.3286 17.8796 28.2526 17.9713 24.5058C18.063 20.724 21.203 17.7965 25.0555 17.9726ZM87.9716 24.8376C87.9643 23.5962 87.8443 22.3402 87.5837 21.1337C86.8073 17.5069 85.0149 14.4309 82.1718 12.0317C77.9736 8.50392 73.1402 7.29741 67.7777 8.3984C64.7796 9.01912 62.1686 10.4374 59.9389 12.547C59.7271 12.7514 59.5859 12.7442 59.3749 12.547C57.6175 10.8609 55.5719 9.65439 53.2782 8.86412C50.7596 7.99599 48.1631 7.79151 45.5244 8.20775C42.1515 8.7295 39.2167 10.155 36.7185 12.4764C36.4012 12.7725 36.2316 12.6808 35.9704 12.4342C32.6193 9.40043 28.6824 7.9043 24.1451 8.0382C21.6687 8.10878 19.3052 8.68074 17.1038 9.84432C12.2355 12.4269 9.2577 16.4488 8.2702 21.8672C7.61381 25.5151 8.15013 29.0502 9.91409 32.3306C12.6233 37.3822 16.871 40.3315 22.5435 41.164C25.1545 41.5519 27.7153 41.228 30.1989 40.3315C30.5657 40.2049 30.9397 40.0703 31.356 39.9153C31.3916 41.1713 31.4622 42.364 31.0249 43.5064C29.9806 46.2585 27.9838 47.7823 25.0417 48.0436C24.7943 48.0647 24.6887 48.1353 24.696 48.3958V48.5799H24.6887V55.6348H24.696C24.7026 56.3057 24.7026 56.9759 24.696 57.6461C24.6887 57.935 24.7877 58.0129 25.0693 57.9983C28.809 57.8579 32.1819 56.7001 35.0819 54.3228C39.2443 50.915 41.2979 46.4841 41.319 41.1218C41.3474 35.774 41.319 30.4182 41.3401 25.0705C41.3401 24.3297 41.4107 23.5678 41.5941 22.8481C42.5328 19.2213 46.5192 17.0979 50.0821 18.2622C52.9114 19.1929 54.5698 21.6838 54.6543 24.4992C54.7037 26.3403 54.6681 28.1893 54.6681 30.0377C54.6754 33.6499 54.6754 37.2556 54.6681 40.8678C54.6615 41.2135 54.7532 41.3408 55.12 41.3263C55.8819 41.3052 56.6438 41.3197 57.4057 41.3197H61.6323C61.6606 41.3263 61.6817 41.3263 61.7174 41.3263C61.9073 41.3263 62.098 41.3263 62.2959 41.3197H62.945V41.3125C63.3329 41.3125 63.728 41.3197 64.1232 41.3336C64.5467 41.3547 64.6311 41.1997 64.6311 40.8045C64.6173 38.0248 64.6239 35.2443 64.6239 32.4579C64.6239 29.946 64.6027 27.4267 64.6311 24.9155C64.6384 24.2169 64.7017 23.4899 64.8924 22.8197C65.6259 20.3077 67.3193 18.7134 69.8451 18.1276C72.2793 17.5636 74.4312 18.2477 76.1813 20.0472C77.5501 21.4509 78.0581 23.1865 78.0508 25.1338C78.0297 30.3622 78.0442 35.5972 78.0442 40.8256C78.0442 41.1429 78.0581 41.3474 78.4816 41.3336C79.1169 41.3052 79.7514 41.3052 80.3867 41.3197H80.5279C80.6334 41.3263 80.7397 41.3263 80.8452 41.3263C80.8736 41.3263 80.8947 41.3263 80.9158 41.3197H86.1298V41.3052C86.5817 41.3052 87.0329 41.3125 87.4775 41.3197C87.8799 41.3336 88 41.2208 88 40.8045C87.9854 35.4844 88.0138 30.1577 87.9716 24.8376Z" fill="#2E2E2E"/></svg>